<svg width="24" height="24" viewBox="0 0 24 24" fill="none" xmlns="http://www.w3.org/2000/svg">
<path d="M22.4413 9.04774L21.3459 8.35678L11.4874 2.07538H11.3669C11.2997 2.04281 11.23 2.01758 11.1588 2H10.9506H10.7535C10.6786 2.01759 10.6053 2.04281 10.5344 2.07538H10.4139L0.55531 8.35678C0.38673 8.46635 0.246511 8.62525 0.148955 8.81726C0.0513995 9.00927 0 9.22752 0 9.44975C0 9.67198 0.0513995 9.89023 0.148955 10.0822C0.246511 10.2742 0.38673 10.4331 0.55531 10.5427L3.28285 12.2764V18.2312C3.28285 19.2307 3.62907 20.1893 4.24535 20.8961C4.86163 21.6029 5.69749 22 6.56904 22H15.3322C16.2038 22 17.0396 21.6029 17.6559 20.8961C18.2722 20.1893 18.6184 19.2307 18.6184 18.2312V12.2764L20.8092 10.8693V14.4623C20.8092 14.7955 20.9246 15.115 21.13 15.3506C21.3355 15.5862 21.6141 15.7186 21.9046 15.7186C22.1951 15.7186 22.4737 15.5862 22.6792 15.3506C22.8846 15.115 23 14.7955 23 14.4623V10.1407C22.9997 9.9181 22.9478 9.69959 22.8496 9.50754C22.7514 9.3155 22.6105 9.15682 22.4413 9.04774ZM16.4276 18.2312C16.4276 18.5643 16.3122 18.8839 16.1068 19.1195C15.9014 19.3551 15.6227 19.4874 15.3322 19.4874H6.56904C6.27852 19.4874 5.9999 19.3551 5.79448 19.1195C5.58905 18.8839 5.47364 18.5643 5.47364 18.2312V13.6709L10.4139 16.8116L10.5782 16.8869H10.6768C10.7677 16.9001 10.8597 16.9001 10.9506 16.8869C11.0416 16.9001 11.1336 16.9001 11.2245 16.8869H11.3231C11.3812 16.8729 11.4368 16.8474 11.4874 16.8116L16.4276 13.6709V18.2312ZM10.9506 14.2864L3.34857 9.43719L10.9506 4.58794L18.5527 9.43719L10.9506 14.2864Z" fill="black"/>
</svg>
